HIERARCHY
ROOT Hips
{
 OFFSET 0.000000 0.000000 0.000000
 CHANNELS 6 Xposition Yposition Zposition Yrotation Xrotation Zrotation
 JOINT Chest
 {
  OFFSET 0.000000 9.585900 0.002600
  CHANNELS 3 Yrotation Xrotation Zrotation
  JOINT Chest2
  {
   OFFSET 0.000000 9.601200 -0.005300
   CHANNELS 3 Yrotation Xrotation Zrotation
   JOINT Chest3
   {
    OFFSET 0.000000 9.561800 0.000000
    CHANNELS 3 Yrotation Xrotation Zrotation
    JOINT Chest4
    {
     OFFSET 0.000000 9.552100 0.000000
     CHANNELS 3 Yrotation Xrotation Zrotation
     JOINT Neck
     {
      OFFSET 0.000000 14.453000 0.000000
      CHANNELS 3 Yrotation Xrotation Zrotation
      JOINT Head
      {
       OFFSET 0.000000 8.936500 -0.011300
       CHANNELS 3 Yrotation Xrotation Zrotation
       End Site
       {
        OFFSET 0.000000 17.073600 -0.006000
       }
      }
     }
     JOINT RightCollar
     {
      OFFSET -2.921100 9.558500 0.000000
      CHANNELS 3 Yrotation Xrotation Zrotation
      JOINT RightShoulder
      {
       OFFSET -13.519700 0.000000 0.000000
       CHANNELS 3 Yrotation Xrotation Zrotation
       JOINT RightElbow
       {
        OFFSET 0.000000 -29.696600 0.000000
        CHANNELS 3 Yrotation Xrotation Zrotation
        JOINT RightWrist
        {
         OFFSET 0.000000 -24.004700 0.000000
         CHANNELS 3 Yrotation Xrotation Zrotation
         End Site
         {
          OFFSET 0.000000 -17.728500 0.000000
         }
        }
       }
      }
     }
     JOINT LeftCollar
     {
      OFFSET 2.921100 9.558500 0.000000
      CHANNELS 3 Yrotation Xrotation Zrotation
      JOINT LeftShoulder
      {
       OFFSET 13.519700 0.000000 0.000000
       CHANNELS 3 Yrotation Xrotation Zrotation
       JOINT LeftElbow
       {
        OFFSET 0.000000 -29.696600 0.000000
        CHANNELS 3 Yrotation Xrotation Zrotation
        JOINT LeftWrist
        {
         OFFSET 0.000000 -24.004700 0.000000
         CHANNELS 3 Yrotation Xrotation Zrotation
         End Site
         {
          OFFSET 0.000000 -17.728500 0.000000
         }
        }
       }
      }
     }
    }
   }
  }
 }
 JOINT RightHip
 {
  OFFSET -7.771700 -0.012900 -0.001300
  CHANNELS 3 Yrotation Xrotation Zrotation
  JOINT RightKnee
  {
   OFFSET 0.000000 -40.869800 0.001200
   CHANNELS 3 Yrotation Xrotation Zrotation
   JOINT RightAnkle
   {
    OFFSET 0.000000 -39.717900 0.002100
    CHANNELS 3 Yrotation Xrotation Zrotation
    JOINT RightToe
    {
     OFFSET 0.000000 -4.965400 11.033500
     CHANNELS 3 Yrotation Xrotation Zrotation
     End Site
     {
      OFFSET 0.000000 -1.423100 5.872300
     }
    }
   }
  }
 }
 JOINT LeftHip
 {
  OFFSET 7.771700 -0.012900 -0.001300
  CHANNELS 3 Yrotation Xrotation Zrotation
  JOINT LeftKnee
  {
   OFFSET 0.000000 -40.869800 0.001200
   CHANNELS 3 Yrotation Xrotation Zrotation
   JOINT LeftAnkle
   {
    OFFSET 0.000000 -39.717900 0.002100
    CHANNELS 3 Yrotation Xrotation Zrotation
    JOINT LeftToe
    {
     OFFSET 0.000000 -4.965400 11.033500
     CHANNELS 3 Yrotation Xrotation Zrotation
     End Site
     {
      OFFSET 0.000000 -1.423100 5.872300
     }
    }
   }
  }
 }
}
MOTION
Frames: 15
Frame Time: 0.008333
0.000000 85.388000 0.000000 0.000000 -5.767877 0.000000 0.000000 11.653817 0.000000 0.000000 -5.885947 0.000000 0.000000 -0.000000 0.000000 0.000000 -0.000000 0.000000 0.000000 12.528835 0.000000 0.000000 0.711642 0.000000 0.000000 -0.000000 0.000000 0.000000 0.000000 -90.000000 0.000000 -2.309062 0.000000 0.000000 2.309062 0.000000 0.000000 -0.000000 0.000000 0.000000 -0.000000 90.000000 0.000000 -2.309062 0.000000 0.000000 2.309062 0.000000 0.000000 8.520406 0.000000 0.000000 1.905762 0.000000 -0.000000 -4.658285 0.000000 0.000000 -0.000000 0.000000 0.000000 8.520406 0.000000 0.000000 1.905762 0.000000 -0.000000 -4.658285 0.000000 0.000000 -0.000000 0.000000
-110.530531 57.576808 98.601643 -178.557917 -34.316402 -0.560391 3.537554 20.504562 2.704318 0.390712 2.692609 0.316814 0.594732 4.314865 0.560503 2.808225 17.511944 2.565300 6.522024 16.701384 -3.324333 13.206333 -4.118153 -8.375596 -1.252746 -0.159206 -0.529722 -14.301168 -12.616830 -3.786935 -109.732331 -63.119197 107.454085 -0.162910 -17.641214 -53.893645 -5.197099 -0.952626 -1.744853 25.004103 -9.687464 -4.267970 65.519758 -39.934265 -80.698478 16.985421 -9.793364 29.376946 12.166787 -41.244742 -8.442767 -15.244931 68.957608 -18.181635 6.439845 25.281062 6.185616 -1.108699 -18.210308 7.894397 -12.542442 -39.385218 -1.247421 27.452271 62.779156 23.075669 -14.628262 11.743817 -1.237674 0.070728 0.467702 0.014436
-110.530217 57.579730 98.610581 -178.578094 -34.349616 -0.539010 3.508134 20.482670 2.704703 0.407933 2.716897 0.305590 0.570945 4.272713 0.575882 2.793167 17.493477 2.575271 6.606285 16.703798 -3.349583 13.369943 -4.099139 -8.449653 -1.209587 -0.124825 -0.465420 -14.039813 -12.439222 -3.591517 -110.034260 -63.402823 107.953520 -0.148059 -17.604780 -53.881997 -5.198728 -0.911307 -1.746425 24.712344 -9.521135 -4.197808 64.640020 -39.581493 -80.285469 17.022780 -9.844212 29.874474 12.128414 -41.212766 -8.422501 -15.209079 68.940808 -18.168064 6.432748 25.281414 6.181324 -1.105931 -18.183969 7.879697 -12.554597 -39.345337 -1.246930 27.439121 62.757364 23.042010 -14.636440 11.756469 -1.237711 0.089305 0.470967 -0.000053
-110.525353 57.580317 98.624923 -178.600949 -34.361662 -0.542699 3.492402 20.437867 2.732827 0.373938 2.663528 0.325539 0.596907 4.311368 0.559271 2.788967 17.498452 2.575948 6.686277 16.691373 -3.365917 13.530737 -4.064634 -8.527358 -1.184940 -0.092907 -0.407705 -13.758079 -12.339566 -3.354254 -110.449364 -63.694268 108.493297 -0.128914 -17.555910 -53.884872 -5.231922 -0.908774 -1.723426 24.439333 -9.354646 -4.139934 63.765508 -39.241465 -79.884522 17.049427 -9.819521 30.303762 12.088853 -41.205877 -8.390025 -15.230660 68.901318 -18.175879 6.433502 25.315022 6.146471 -1.095271 -18.170781 7.872905 -12.588202 -39.322347 -1.204299 27.443519 62.733218 23.025116 -14.642555 11.762014 -1.251145 0.082001 0.482563 0.006731
-110.522702 57.583896 98.636259 -178.670971 -34.410923 -0.508355 3.515324 20.431901 2.752858 0.363061 2.642270 0.334267 0.602308 4.319808 0.555910 2.780886 17.483972 2.591527 6.731565 16.743899 -3.406168 13.719340 -4.050067 -8.618455 -1.164366 -0.038272 -0.377995 -13.457426 -12.304510 -3.094701 -110.979185 -64.000270 109.072632 -0.100505 -17.498666 -53.900122 -5.259017 -0.875569 -1.735120 24.156612 -9.222008 -4.086553 62.921243 -38.933886 -79.504717 17.065087 -9.698400 30.677220 12.095295 -41.165240 -8.386088 -15.205339 68.870402 -18.125672 6.463457 25.361814 6.132221 -1.116530 -18.164720 7.855562 -12.564085 -39.263975 -1.189072 27.462614 62.715258 23.019571 -14.651606 11.768491 -1.250453 0.082849 0.481825 0.005764
-110.519935 57.585387 98.651191 -178.713334 -34.444281 -0.492199 3.518310 20.411906 2.777666 0.361465 2.638070 0.336739 0.599835 4.313293 0.559952 2.767202 17.450299 2.620692 6.830208 16.773657 -3.447012 13.856826 -3.969851 -8.696055 -1.145244 0.025030 -0.360105 -13.132332 -12.323462 -2.832888 -111.624387 -64.318303 109.690339 -0.065443 -17.445502 -53.918059 -5.283669 -0.820483 -1.761723 23.872325 -9.102633 -4.060224 62.124808 -38.691588 -79.145177 17.065098 -9.485995 31.011462 12.114372 -41.138031 -8.392263 -15.214065 68.841757 -18.098087 6.479364 25.402499 6.118327 -1.124398 -18.159821 7.843357 -12.563794 -39.221523 -1.171477 27.483235 62.695181 23.020451 -14.651977 11.758472 -1.244937 0.076107 0.497338 0.000741
-110.519117 57.584555 98.669403 -178.711654 -34.459862 -0.492007 3.483681 20.375733 2.794759 0.373740 2.662808 0.323383 0.585886 4.280185 0.580741 2.763042 17.440371 2.639257 6.925471 16.788692 -3.474235 13.989978 -3.881497 -8.772840 -1.138693 0.052337 -0.326561 -12.785034 -12.388121 -2.567588 -112.396727 -64.643876 110.366893 -0.026276 -17.408508 -53.947291 -5.317319 -0.788367 -1.769329 23.589127 -8.985746 -4.065404 61.387422 -38.549823 -78.805436 17.044023 -9.212600 31.315041 12.115349 -41.126787 -8.418770 -15.186303 68.830338 -18.043604 6.500723 25.417244 6.118839 -1.139750 -18.150538 7.832696 -12.591068 -39.198219 -1.170822 27.489666 62.654845 23.039602 -14.701355 11.755127 -1.281019 0.110440 0.512271 0.010227
-110.520004 57.586106 98.683467 -178.741676 -34.508076 -0.467851 3.476741 20.374052 2.810088 0.383610 2.685800 0.308338 0.575545 4.251471 0.603828 2.766393 17.464506 2.628523 7.005971 16.788308 -3.475653 14.135155 -3.801667 -8.849952 -1.138542 0.031066 -0.257312 -12.417826 -12.492729 -2.309314 -113.308681 -64.973824 111.123858 0.018593 -17.396747 -54.007380 -5.358058 -0.794922 -1.740544 23.308692 -8.861705 -4.098874 60.725106 -38.529569 -78.496721 16.994953 -8.920008 31.588122 12.145173 -41.082616 -8.448369 -15.154072 68.821339 -17.982140 6.510676 25.434567 6.137775 -1.136967 -18.144532 7.797804 -12.576866 -39.146207 -1.189831 27.493937 62.628789 23.047236 -14.716442 11.761681 -1.298520 0.122906 0.513293 0.013118
-110.517949 57.587074 98.697318 -178.783994 -34.556167 -0.458175 3.490373 20.373703 2.850262 0.381874 2.679808 0.311077 0.575485 4.254135 0.609518 2.768731 17.485023 2.617346 7.086909 16.797345 -3.472926 14.277118 -3.714963 -8.922647 -1.134449 -0.002944 -0.184554 -12.031342 -12.632075 -2.070005 -114.357637 -65.302285 111.963053 0.072941 -17.414749 -54.101271 -5.396195 -0.806923 -1.711674 23.031177 -8.728970 -4.156243 60.150291 -38.631387 -78.239453 16.918483 -8.656865 31.846729 12.163393 -41.041128 -8.440166 -15.163097 68.792417 -17.955509 6.505488 25.481151 6.140411 -1.114856 -18.138579 7.762899 -12.566743 -39.092459 -1.184526 27.510601 62.610386 23.061205 -14.704098 11.764711 -1.296851 0.109271 0.514029 0.012337
-110.517069 57.589632 98.707570 -178.840406 -34.625993 -0.437866 3.515408 20.397126 2.888563 0.363065 2.642853 0.340089 0.589820 4.289677 0.588975 2.759041 17.437975 2.687745 7.152153 16.891141 -3.545144 14.417098 -3.618840 -8.989139 -1.114774 0.017028 -0.196179 -11.632938 -12.801615 -1.859950 -115.520497 -65.616801 112.877636 0.135766 -17.463937 -54.212706 -5.417835 -0.766575 -1.773577 22.764538 -8.590338 -4.232535 59.666117 -38.834753 -78.052556 16.823630 -8.464548 32.108507 12.191600 -40.977363 -8.429983 -15.163878 68.765792 -17.923542 6.510272 25.528547 6.142493 -1.092191 -18.151187 7.732403 -12.537872 -39.018421 -1.191467 27.528645 62.593102 23.078271 -14.691557 11.781788 -1.297577 0.093661 0.500331 0.014308
-110.516344 57.587567 98.723056 -178.868653 -34.649964 -0.435948 3.514450 20.377344 2.924038 0.356571 2.630415 0.352570 0.592206 4.301228 0.585748 2.750718 17.421627 2.726994 7.223442 16.956937 -3.584637 14.555259 -3.512819 -9.050034 -1.085019 -0.003084 -0.173695 -11.234435 -12.996413 -1.688667 -116.765031 -65.908823 113.861681 0.199863 -17.538160 -54.321711 -5.416410 -0.734418 -1.833258 22.503250 -8.486489 -4.303017 59.271317 -39.110583 -77.943242 16.712156 -8.345067 32.366773 12.201181 -40.959617 -8.439078 -15.113481 68.741012 -17.839218 6.523693 25.576393 6.152927 -1.083384 -18.161392 7.698705 -12.541224 -38.993052 -1.183062 27.526884 62.578619 23.087258 -14.691138 11.785655 -1.308221 0.093803 0.503833 0.013391
-110.513677 57.583723 98.739595 -178.911258 -34.655663 -0.441176 3.527543 20.341911 2.972749 0.354831 2.629797 0.356133 0.589458 4.300310 0.591540 2.756131 17.442552 2.718189 7.293461 16.982794 -3.572537 14.688847 -3.398560 -9.105959 -1.055219 -0.069224 -0.098834 -10.848388 -13.209247 -1.561363 -118.072271 -66.179509 114.915960 0.254962 -17.618184 -54.408853 -5.447092 -0.775495 -1.786008 22.305175 -8.334775 -4.424460 58.964654 -39.442387 -77.910759 16.575291 -8.263228 32.611807 12.198382 -40.966355 -8.469818 -15.037866 68.709077 -17.684506 6.576416 25.648905 6.135206 -1.103202 -18.172202 7.661409 -12.546158 -38.986087 -1.151598 27.455094 62.582443 23.047583 -14.674346 11.788130 -1.341652 0.116204 0.506257 0.014563
-110.515903 57.585013 98.747346 -178.949934 -34.712815 -0.423738 3.535894 20.371094 2.993110 0.345512 2.619111 0.366782 0.603184 4.319434 0.578059 2.751888 17.441142 2.729214 7.357862 17.011467 -3.557265 14.811002 -3.276350 -9.154348 -1.014080 -0.140295 -0.028089 -10.487557 -13.430543 -1.478078 -119.448433 -66.435805 116.057892 0.293834 -17.681258 -54.460506 -5.470382 -0.810256 -1.738222 22.133414 -8.196850 -4.574518 58.748862 -39.829718 -77.954785 16.415756 -8.165838 32.835285 12.203182 -40.915341 -8.480994 -14.987963 68.699372 -17.606358 6.606455 25.670666 6.135440 -1.117613 -18.169968 7.641463 -12.522060 -38.934071 -1.163731 27.460061 62.584019 23.055412 -14.669736 11.803346 -1.337615 0.117061 0.490619 0.006523
-110.520321 57.585914 98.754398 -178.977561 -34.760416 -0.402089 3.548220 20.410008 2.993496 0.322106 2.589752 0.390575 0.614899 4.338107 0.565351 2.714621 17.374947 2.819014 7.394587 17.117336 -3.649051 14.935825 -3.150906 -9.173297 -0.935697 -0.150243 -0.056303 -10.158434 -13.651164 -1.435217 -120.900108 -66.686472 117.301072 0.320773 -17.721499 -54.480523 -5.442775 -0.764556 -1.803155 21.970841 -8.094467 -4.749022 58.627399 -40.272727 -78.079491 16.253785 -8.023715 33.007042 12.196443 -40.870096 -8.499049 -14.885740 68.698871 -17.500694 6.639438 25.668934 6.162559 -1.150332 -18.154234 7.615154 -12.497960 -38.894394 -1.187425 27.465546 62.586201 23.065163 -14.669807 11.817972 -1.338014 0.116191 0.475855 0.008033
-110.519543 57.585680 98.761980 -179.007923 -34.787615 -0.411324 3.548355 20.399611 3.039930 0.323666 2.588581 0.390504 0.581813 4.290726 0.607805 2.720745 17.397876 2.816540 7.424298 17.197272 -3.698758 15.022886 -3.018576 -9.174613 -0.873758 -0.182227 -0.053410 -9.860062 -13.867801 -1.429976 -122.419408 -66.937153 118.642300 0.344454 -17.750191 -54.485328 -5.419124 -0.726986 -1.825751 21.822944 -8.006267 -4.955434 58.609283 -40.768272 -78.296049 16.104544 -7.863827 33.090673 12.154876 -40.850781 -8.477447 -14.853354 68.673746 -17.447111 6.679656 25.701810 6.172535 -1.159570 -18.156806 7.576318 -12.501150 -38.868333 -1.164727 27.471211 62.590740 23.088767 -14.680052 11.816987 -1.365540 0.129231 0.472835 0.024538
